# xmcd
#
# Track frame offsets: 
#        150
#        22942
#        41585
#        63675
#        98587
#        133197
#        164855
#        190460
#        211215
#
# Disc length: 3050 seconds
#
# Revision: 1
# Processed by: cddbd v1.5.2PL0 Copyright (c) Steve Scherf et al.
# Submitted via: ExactAudioCopy v1.1
#
DISCID=820be809
DTITLE=Salzburger Hofmusik - Mozart: Piano Concertos
DYEAR=1998
DGENRE=Classical
TTITLE0=Concerto "Pasticcio" for harpsichord and orchestra in D major, K
TTITLE0=40 - 1. Allegro maestoso
TTITLE1=Concerto "Pasticcio" for harpsichord and orchestra in D major, K
TTITLE1=40 - 2. Andante
TTITLE2=Concerto "Pasticcio" for harpsichord and orchestra in D major, K
TTITLE2=40 - 3. Presto
TTITLE3=Concerto for harpsichord and orchestra in C major, K.246 "Lutzow
TTITLE3=" - 1. Allegro aperto
TTITLE4=Concerto for harpsichord and orchestra in C major, K.246 "Lutzow
TTITLE4=" - 2. Andante
TTITLE5=Concerto for harpsichord and orchestra in C major, K.246 "Lutzow
TTITLE5=" - 3. Rondeau. Tempo di Menuetto
TTITLE6=Concerto for fortepiano and strings in D major, K.107-1 - 1. All
TTITLE6=egro
TTITLE7=Concerto for fortepiano and strings in D major, K.107-1 - 2. And
TTITLE7=ante
TTITLE8=Concerto for fortepiano and strings in D major, K.107-1 - 3. Tem
TTITLE8=po di Menuetto
EXTD=
EXTT0=缬ຆ䵔๧burger Hofmusik auf historischen Instrumenten
EXTT1=繄๻볈ő祲〫〲〰〰⬱⬱㔱⬰2musik auf historischen Instrumenten
EXTT2=䵔๧繄๻burger Hofmusik auf historischen Instrumenten
EXTT3=开ໜ볈ő〰〰‱牄‮楄瑥慨摲匠整穬⁬ 楄⁥潂獴档晡⁴敭湩獥䬠뛃灲牥s潦歬〠〲〰〰‱汏敳⁮牂瑯敨獲⼠圠湩獧传⁦潌敶樀穡⁺㈰〰〰㄰匠慨
EXTT3=慷⼠ㄠ‱畊汩敬⁴〲㤰洀獩⁣㈰〰〰㄰䄠晢桡瑲業⁸ 扁慦牨浴硩爀捯⁫㈰〰〰㄰匠整敶嘠祡⼠㼠㼿㼿㼿㼿㼿戀畬獥〠〲〰〰‱牔湡畱汩楬祴⼠传
EXTT3=散湡䐠睡n敮慷敧〠〲〰〰‱楇湡慮丠湡楮楮⼠倠牥敬挀慬獳捩污〠〲〰〰‱敄数档⁥潍敤⼠倠慬楹杮琠敨䄠杮汥猀畯摮牴捡⁫㈰〰〰㄰䐠⹲䐠敩
EXTT3=桴牡⁤瑓汥決⼠䐠敩䈠瑯捳慨瑦洠楥敮⁳썋状数獲⸀
EXTT4=㟸ພᣠ๲burger Hofmusik auf historischen Instrumenten
EXTT5=㟸ພ孜๥burger Hofmusik auf historischen Instrumenten
EXTT6=㟸ພ볈őburger Hofmusik auf historischen Instrumenten
EXTT7=孜๥볈őburger Hofmusik auf historischen Instrumenten
EXTT8=廨໛볈őburger Hofmusik auf historischen Instrumenten
PLAYORDER=
